<?xml version="1.0" encoding="UTF-8"?>
<svg width="228px" height="260px" viewBox="0 0 228 260" version="1.1" xmlns="http://www.w3.org/2000/svg" xmlns:xlink="http://www.w3.org/1999/xlink">
    <!-- Generator: Sketch 47.1 (45422) - http://www.bohemiancoding.com/sketch -->
    <title>Chai Logo</title>
    <desc>Created with Sketch.</desc>
    <defs>
        <linearGradient x1="0%" y1="31.3313702%" x2="50%" y2="87.4999999%" id="linearGradient-1">
            <stop stop-color="#FFFEFA" offset="0%"></stop>
            <stop stop-color="#FFEBAE" offset="100%"></stop>
        </linearGradient>
    </defs>
    <g id="Logos" stroke="none" stroke-width="1" fill="none" fill-rule="evenodd">
        <g id="Chai-Logo">
            <g id="Hexagon-Base" fill-rule="nonzero">
                <polygon id="Polygon" fill="url(#linearGradient-1)" points="114 3 223.985226 66.5 223.985226 193.5 114 257 4.01477372 193.5 4.01477372 66.5"></polygon>
                <path d="M110.754957,0.669872981 L2.50004022,63.169873 C0.953009945,64.063037 -1.11022302e-15,65.7136721 -1.11022302e-15,67.5 L-1.11022302e-15,192.5 C-1.11022302e-15,194.286328 0.953009945,195.936963 2.50004022,196.830127 L110.754957,259.330127 C112.301987,260.223291 114.208008,260.223291 115.755038,259.330127 L224.009954,196.830127 C225.556985,195.936963 226.509995,194.286328 226.509995,192.5 L226.509995,67.5 C226.509995,65.7136721 225.556985,64.063037 224.009954,63.169873 L115.755038,0.669872981 C114.208008,-0.223290994 112.301987,-0.223290994 110.754957,0.669872981 Z M113.254997,10 L217.179717,70 L217.179717,190 L113.254997,250 L9.33027708,190 L9.33027708,70 L113.254997,10 Z" id="Combined-Shape" fill="#94161F"></path>
            </g>
            <path d="M72.7209694,154.181695 C71.4643716,155.788483 70.0911103,157.350614 68.6011444,158.868136 C67.1111785,160.385657 65.495577,161.733553 63.7542915,162.911864 C62.013006,164.090175 60.1730154,165.045307 58.2342646,165.777288 C56.2955137,166.509269 54.2849874,166.875254 52.2026254,166.875254 C49.5458186,166.875254 47.1044653,166.411078 44.8784921,165.482712 C42.6525189,164.554346 40.7317482,163.233229 39.1161225,161.519322 C37.5004968,159.805415 36.2439179,157.734475 35.346348,155.306441 C34.4487782,152.878406 34,150.164761 34,147.165424 C34,144.023261 34.637265,141.041822 35.9118142,138.221017 C37.1863634,135.400212 38.8917205,132.927581 41.0279367,130.803051 C43.1641529,128.67852 45.6503841,127.000345 48.4867048,125.768475 C51.3230255,124.536604 54.3029127,123.920678 57.4264557,123.920678 C58.6471507,123.920678 59.876803,124.036722 61.1154493,124.268814 C62.3540957,124.500905 63.5388701,124.857964 64.6698081,125.34 C65.8007461,125.822036 66.8419115,126.464742 67.7933356,127.268136 C68.7447596,128.071529 69.5435848,129.026661 70.1898351,130.133559 L62.4887243,134.311186 C62.1296964,133.454233 61.6180893,132.70441 60.9538876,132.061695 C60.2896859,131.41898 59.5447141,130.883392 58.7189498,130.454915 C57.8931856,130.026439 57.0225559,129.705086 56.1070347,129.490847 C55.1915134,129.276609 54.3029326,129.169492 53.4412656,129.169492 C51.7179315,129.169492 50.1741345,129.553329 48.8098283,130.321017 C47.4455222,131.088704 46.2876745,132.088468 45.3362504,133.320339 C44.3848264,134.55221 43.6578057,135.944738 43.1551666,137.497966 C42.6525275,139.051194 42.4012117,140.631178 42.4012117,142.237966 C42.4012117,145.308716 42.7781854,148.022361 43.5321441,150.378983 C44.2861027,152.735605 45.3272681,154.71728 46.6556715,156.324068 C47.9840749,157.930855 49.545823,159.144855 51.3409626,159.966102 C53.1361023,160.787349 55.0927752,161.197966 57.2110401,161.197966 C58.431735,161.197966 59.688314,160.894466 60.9808145,160.287458 C62.2733151,159.680449 63.5209185,158.921699 64.7236621,158.011186 C65.9264057,157.100673 67.0752778,156.127689 68.170313,155.092203 C69.2653482,154.056718 70.2436847,153.128366 71.1053517,152.307119 L72.7209694,154.181695 Z M120.920229,159.537627 C120.525298,160.465993 119.99574,161.340787 119.331538,162.162034 C118.667337,162.983281 117.913389,163.715251 117.069674,164.357966 C116.225958,165.000681 115.31045,165.50949 114.323124,165.884407 C113.335797,166.259324 112.303607,166.44678 111.226523,166.44678 C108.426105,166.44678 106.388652,165.670177 105.114103,164.116949 C103.839554,162.563721 103.202289,160.448149 103.202289,157.770169 L103.202289,135.971525 C103.202289,135.685874 103.184338,135.373448 103.148435,135.034237 C103.112532,134.695027 103.031752,134.373674 102.906092,134.070169 C102.780432,133.766665 102.609897,133.516724 102.39448,133.320339 C102.179063,133.123954 101.891845,133.025763 101.532817,133.025763 C100.599345,133.025763 99.7197393,133.409601 98.8939751,134.177288 C98.0682108,134.944976 97.3142635,135.980445 96.6321104,137.283729 C95.9499573,138.587012 95.3126923,140.077732 94.7202962,141.755932 C94.1279001,143.434133 93.5983418,145.18372 93.1316055,147.004746 C92.6648692,148.825772 92.2609688,150.646771 91.9198923,152.467797 C91.5788158,154.288823 91.2826221,156.002704 91.0313026,157.609492 C90.779983,159.216279 90.5914962,160.626661 90.4658364,161.840678 C90.3401766,163.054695 90.2773477,163.965195 90.2773477,164.572203 L80.3682262,168 L80.3682262,92.4277966 L90.2773477,89 L90.2773477,146.951186 C90.4927645,145.665756 90.8338359,144.19289 91.3005722,142.532542 C91.7673085,140.872195 92.3417446,139.185093 93.0238977,137.471186 C93.7060508,135.75728 94.5048759,134.061251 95.4203972,132.383051 C96.3359184,130.70485 97.3681082,129.223057 98.5169976,127.937627 C99.665887,126.652197 100.931442,125.607801 102.313699,124.804407 C103.695957,124.001013 105.194876,123.599322 106.810502,123.599322 C108.46203,123.599322 109.718609,123.965307 110.580276,124.697288 C111.441943,125.429269 112.061257,126.357621 112.438236,127.482373 C112.815216,128.607124 113.021654,129.847903 113.057556,131.204746 C113.093459,132.561589 113.11141,133.864853 113.11141,135.114576 L113.11141,158.037966 C113.11141,158.752094 113.281946,159.403726 113.623023,159.992881 C113.964099,160.582037 114.52956,160.87661 115.319421,160.87661 C116.216991,160.87661 117.024792,160.546331 117.742848,159.885763 C118.460903,159.225194 119.053291,158.573563 119.520027,157.930847 L120.920229,159.537627 Z M169.604174,159.430508 C169.17334,160.358875 168.634806,161.233668 167.988556,162.054915 C167.342306,162.876162 166.597334,163.608132 165.753618,164.250847 C164.909903,164.893563 163.994395,165.402371 163.007068,165.777288 C162.019742,166.152205 160.987552,166.339661 159.910468,166.339661 C157.074147,166.339661 155.036694,165.563059 153.798048,164.009831 C152.559401,162.456602 151.940088,160.34103 151.940088,157.663051 L151.940088,156.698983 C151.293837,157.913 150.566817,159.127 149.759004,160.341017 C148.951191,161.555034 148.035683,162.644063 147.012454,163.608136 C145.989224,164.572208 144.849327,165.357737 143.59273,165.964746 C142.336132,166.571754 140.935944,166.875254 139.392124,166.875254 C137.058442,166.875254 134.994063,166.428931 133.198923,165.536271 C131.403783,164.643611 129.895889,163.438539 128.675194,161.921017 C127.454499,160.403495 126.538991,158.627129 125.928644,156.591864 C125.318296,154.5566 125.013127,152.396396 125.013127,150.111186 C125.013127,147.00473 125.560636,143.907247 126.655671,140.818644 C127.750707,137.730041 129.294504,134.971764 131.287109,132.543729 C133.279714,130.115694 135.667214,128.142945 138.44968,126.625424 C141.232147,125.107902 144.328716,124.349153 147.739482,124.349153 C149.103788,124.349153 150.468074,124.474123 151.83238,124.724068 C153.196686,124.974013 154.498143,125.375703 155.736789,125.929153 C156.975435,126.482602 158.106356,127.205645 159.129586,128.098305 C160.152816,128.990965 160.987543,130.079994 161.633793,131.365424 L153.609559,134.739661 C153.178726,134.06124 152.68507,133.409608 152.128576,132.784746 C151.572083,132.159884 150.961745,131.61537 150.297543,131.151186 C149.633341,130.687003 148.924272,130.312092 148.170313,130.026441 C147.416354,129.74079 146.626505,129.597966 145.80074,129.597966 C143.933795,129.597966 142.273316,130.16926 140.819253,131.311864 C139.36519,132.454469 138.126562,133.86485 137.103332,135.543051 C136.080103,137.221251 135.299229,139.006544 134.760687,140.898983 C134.222145,142.791422 133.952878,144.505303 133.952878,146.040678 C133.952878,147.397521 134.087511,148.923946 134.356782,150.62 C134.626053,152.316054 135.101758,153.913891 135.783911,155.413559 C136.466064,156.913228 137.363621,158.180786 138.476607,159.216271 C139.589594,160.251757 140.989782,160.769492 142.677213,160.769492 C144.005616,160.769492 145.154489,160.474918 146.123864,159.885763 C147.093239,159.296607 147.918991,158.528931 148.601144,157.582712 C149.283297,156.636492 149.848758,155.547464 150.297543,154.315593 C150.746328,153.083723 151.087399,151.825091 151.320767,150.539661 C151.554136,149.254231 151.715696,147.977746 151.805453,146.710169 C151.89521,145.442593 151.940088,144.308932 151.940088,143.309153 L151.940088,139.613559 L161.741501,136.185763 L161.741501,157.930847 C161.741501,158.644975 161.921012,159.296607 162.28004,159.885763 C162.639068,160.474918 163.195553,160.769492 163.949512,160.769492 C164.847082,160.769492 165.663858,160.439212 166.399865,159.778644 C167.135873,159.118076 167.719284,158.448591 168.150118,157.770169 L169.604174,159.430508 Z M186.568159,95.9091525 L183.713901,115.458305 L178.436217,117.118644 L175.204981,99.7654237 L186.568159,95.9091525 Z M194,159.537627 C193.174236,161.28724 192.21385,162.62621 191.118815,163.554576 C190.02378,164.482942 188.973639,165.161354 187.968361,165.589831 C186.783569,166.08972 185.580843,166.375367 184.360148,166.44678 C182.780425,166.44678 181.469993,166.196839 180.428812,165.696949 C179.387631,165.19706 178.561879,164.536501 177.951531,163.715254 C177.341184,162.894007 176.919332,161.965655 176.685964,160.930169 C176.452596,159.894684 176.335914,158.841361 176.335914,157.770169 L176.335914,127.72339 L186.245035,124.349153 L186.245035,158.037966 C186.245035,158.89492 186.442498,159.573331 186.837428,160.07322 C187.232359,160.57311 187.743966,160.831977 188.372265,160.849831 C189.000564,160.867684 189.682707,160.644522 190.418714,160.180339 C191.154722,159.716156 191.863791,158.966333 192.545944,157.930847 L194,159.537627 Z" id="chai" fill="#A30701"></path>
        </g>
    </g>
</svg>