<?xml version="1.0" encoding="utf-8"?>
<!-- Generator: Adobe Illustrator 22.1.0, SVG Export Plug-In . SVG Version: 6.00 Build 0)  -->
<svg version="1.1" id="Layer_1" xmlns="http://www.w3.org/2000/svg" xmlns:xlink="http://www.w3.org/1999/xlink" x="0px" y="0px"
	 viewBox="0 0 173.1 181.3" style="enable-background:new 0 0 173.1 181.3;" xml:space="preserve">
<style type="text/css">
	.st0{fill:#E93EF5;}
	.st1{fill:url(#SVGID_1_);}
	.st2{fill:url(#SVGID_2_);}
	.st3{fill:url(#SVGID_3_);}
	.st4{fill:url(#SVGID_4_);}
	.st5{fill:url(#SVGID_5_);}
	.st6{fill:url(#SVGID_6_);}
	.st7{fill:url(#SVGID_7_);}
	.st8{fill:url(#SVGID_8_);}
	.st9{fill:url(#SVGID_9_);}
	.st10{fill:url(#SVGID_10_);}
	.st11{fill:url(#SVGID_11_);}
	.st12{fill:url(#SVGID_12_);}
	.st13{fill:url(#SVGID_13_);}
	.st14{fill:url(#SVGID_14_);}
	.st15{fill:url(#SVGID_15_);}
	.st16{fill:url(#SVGID_16_);}
	.st17{fill:url(#SVGID_17_);}
	.st18{fill:url(#SVGID_18_);}
	.st19{fill:url(#SVGID_19_);}
	.st20{fill:url(#SVGID_20_);}
	.st21{fill:url(#SVGID_21_);}
	.st22{fill:url(#SVGID_22_);}
	.st23{fill:url(#SVGID_23_);}
</style>
<path class="st0" d="M86.8,1.8c-9.1,0-17.9,0.8-26.2,2.3h52.5C104.7,2.6,95.9,1.8,86.8,1.8z"/>
<path class="st0" d="M60.6,5.2c-5.1,0.9-10,2.1-14.7,3.5h81.8c-4.7-1.4-9.6-2.6-14.7-3.5H60.6z"/>
<path class="st0" d="M127.8,9.7H45.9c-2.7,0.8-5.3,1.7-7.9,2.7h97.7C133.1,11.4,130.5,10.5,127.8,9.7z"/>
<path class="st0" d="M135.7,13.3H38c-2.1,0.8-4.2,1.6-6.2,2.5h110C139.8,15,137.8,14.1,135.7,13.3z"/>
<path class="st0" d="M141.8,16.8h-110c-1.7,0.7-3.4,1.5-5,2.3h120C145.2,18.4,143.5,17.6,141.8,16.8z"/>
<path class="st0" d="M146.8,20.2h-120c-1.4,0.7-2.8,1.4-4.1,2.2h128.2C149.6,21.6,148.2,20.9,146.8,20.2z"/>
<path class="st0" d="M144.8,27.5h-116c-1,0.7-1.9,1.4-2.9,2.2h121.8C146.8,28.9,145.8,28.2,144.8,27.5z"/>
<path class="st0" d="M147.7,30.7H25.9c-1.1,0.9-2.2,1.8-3.2,2.7h128.2C149.9,32.4,148.8,31.5,147.7,30.7z"/>
<path class="st0" d="M150.9,34.3H22.7c-0.9,0.8-1.8,1.7-2.7,2.5h133.6C152.8,36,151.9,35.1,150.9,34.3z"/>
<path class="st0" d="M153.7,37.8H20c-0.8,0.8-1.6,1.5-2.3,2.3H156C155.2,39.4,154.4,38.6,153.7,37.8z"/>
<path class="st0" d="M156,41.2H17.7c-0.8,0.9-1.6,1.8-2.4,2.7h143.1C157.6,42.9,156.8,42,156,41.2z"/>
<path class="st0" d="M158.4,44.8H15.3c-0.8,1-1.6,2-2.4,3h147.9C160,46.8,159.2,45.8,158.4,44.8z"/>
<path class="st0" d="M160.8,48.8H12.9c-0.7,0.9-1.3,1.8-1.9,2.7h151.8C162.1,50.6,161.5,49.7,160.8,48.8z"/>
<path class="st0" d="M162.7,52.5H10.9c-0.8,1.1-1.5,2.3-2.2,3.5H165C164.3,54.8,163.5,53.6,162.7,52.5z"/>
<path class="st0" d="M165,57H8.7c-0.8,1.3-1.5,2.6-2.2,4h160.6C166.5,59.6,165.8,58.3,165,57z"/>
<path class="st0" d="M167.1,62H6.5c-0.7,1.4-1.3,2.9-1.9,4.3h164.5C168.5,64.9,167.9,63.4,167.1,62z"/>
<path class="st0" d="M169.1,67.3H4.6c-0.4,0.9-0.7,1.8-1,2.7h166.5C169.8,69.1,169.4,68.2,169.1,67.3z"/>
<path class="st0" d="M170.1,71H3.6c-0.4,1.1-0.7,2.2-1,3.3h168.5C170.8,73.2,170.4,72.1,170.1,71z"/>
<linearGradient id="SVGID_1_" gradientUnits="userSpaceOnUse" x1="1.7051" y1="77.0833" x2="171.9527" y2="77.0833">
	<stop  offset="0" style="stop-color:#E93EF5"/>
	<stop  offset="0.4975" style="stop-color:#E843EA"/>
	<stop  offset="1" style="stop-color:#D0AA00"/>
</linearGradient>
<path class="st1" d="M171.1,75.3H2.6c-0.3,1.2-0.6,2.3-0.9,3.5H172C171.7,77.7,171.4,76.5,171.1,75.3z"/>
<linearGradient id="SVGID_2_" gradientUnits="userSpaceOnUse" x1="0.8463" y1="85.25" x2="172.8115" y2="85.25">
	<stop  offset="0" style="stop-color:#E93EF5"/>
	<stop  offset="0.4975" style="stop-color:#E843EA"/>
	<stop  offset="1" style="stop-color:#D0AA00"/>
</linearGradient>
<path class="st2" d="M172.5,84H1.2c-0.1,0.8-0.2,1.7-0.3,2.5h172C172.7,85.7,172.6,84.8,172.5,84z"/>
<linearGradient id="SVGID_3_" gradientUnits="userSpaceOnUse" x1="0.5789" y1="94.1667" x2="173.0789" y2="94.1667">
	<stop  offset="0" style="stop-color:#E93EF5"/>
	<stop  offset="0.4975" style="stop-color:#E843EA"/>
	<stop  offset="1" style="stop-color:#D0AA00"/>
</linearGradient>
<path class="st3" d="M173.1,93.6c0-0.4,0-0.7,0-1.1H0.6c0,0.4,0,0.7,0,1.1c0,0.8,0,1.5,0.1,2.2H173C173,95.1,173.1,94.3,173.1,93.6z
	"/>
<linearGradient id="SVGID_4_" gradientUnits="userSpaceOnUse" x1="0.9374" y1="103.1667" x2="172.7204" y2="103.1667">
	<stop  offset="0" style="stop-color:#E93EF5"/>
	<stop  offset="0.4975" style="stop-color:#E843EA"/>
	<stop  offset="1" style="stop-color:#D0AA00"/>
</linearGradient>
<path class="st4" d="M172.7,101.5H0.9c0.1,1.1,0.3,2.2,0.5,3.3h170.8C172.4,103.7,172.6,102.6,172.7,101.5z"/>
<linearGradient id="SVGID_5_" gradientUnits="userSpaceOnUse" x1="1.4137" y1="108.0833" x2="172.2442" y2="108.0833">
	<stop  offset="0" style="stop-color:#E93EF5"/>
	<stop  offset="0.4975" style="stop-color:#E843EA"/>
	<stop  offset="1" style="stop-color:#D0AA00"/>
</linearGradient>
<path class="st5" d="M172.2,105.8H1.4c0.3,1.5,0.6,3,1,4.5h168.8C171.6,108.8,172,107.4,172.2,105.8z"/>
<linearGradient id="SVGID_6_" gradientUnits="userSpaceOnUse" x1="2.4168" y1="112.75" x2="171.241" y2="112.75">
	<stop  offset="0" style="stop-color:#E93EF5"/>
	<stop  offset="0.4975" style="stop-color:#E843EA"/>
	<stop  offset="1" style="stop-color:#D0AA00"/>
</linearGradient>
<path class="st6" d="M171.2,111.3H2.4c0.2,1,0.5,1.9,0.8,2.8h167.2C170.7,113.2,171,112.3,171.2,111.3z"/>
<linearGradient id="SVGID_7_" gradientUnits="userSpaceOnUse" x1="5.8015" y1="125.5" x2="167.8564" y2="125.5">
	<stop  offset="0" style="stop-color:#E93EF5"/>
	<stop  offset="0.4975" style="stop-color:#E843EA"/>
	<stop  offset="1" style="stop-color:#D0AA00"/>
</linearGradient>
<path class="st7" d="M167.9,123.7H5.8c0.6,1.2,1.2,2.5,1.9,3.7H166C166.7,126.1,167.3,124.9,167.9,123.7z"/>
<linearGradient id="SVGID_8_" gradientUnits="userSpaceOnUse" x1="7.6658" y1="129.5833" x2="165.992" y2="129.5833">
	<stop  offset="0" style="stop-color:#E93EF5"/>
	<stop  offset="0.4975" style="stop-color:#E843EA"/>
	<stop  offset="1" style="stop-color:#D0AA00"/>
</linearGradient>
<path class="st8" d="M166,128.3H7.7c0.5,0.8,0.9,1.7,1.5,2.5h155.4C165,130,165.5,129.2,166,128.3z"/>
<linearGradient id="SVGID_9_" gradientUnits="userSpaceOnUse" x1="9.1185" y1="133.5" x2="164.5394" y2="133.5">
	<stop  offset="0" style="stop-color:#E93EF5"/>
	<stop  offset="0.4975" style="stop-color:#E843EA"/>
	<stop  offset="1" style="stop-color:#D0AA00"/>
</linearGradient>
<path class="st9" d="M164.5,131.8H9.1c0.7,1.1,1.4,2.2,2.2,3.3h151C163.1,134.1,163.8,133,164.5,131.8z"/>
<linearGradient id="SVGID_10_" gradientUnits="userSpaceOnUse" x1="11.3125" y1="137.8333" x2="162.3453" y2="137.8333">
	<stop  offset="0" style="stop-color:#E93EF5"/>
	<stop  offset="0.4975" style="stop-color:#E843EA"/>
	<stop  offset="1" style="stop-color:#D0AA00"/>
</linearGradient>
<path class="st10" d="M162.3,136.2h-151c0.8,1.1,1.6,2.2,2.5,3.3h146C160.7,138.4,161.6,137.3,162.3,136.2z"/>
<linearGradient id="SVGID_11_" gradientUnits="userSpaceOnUse" x1="13.8139" y1="142.1667" x2="159.8439" y2="142.1667">
	<stop  offset="0" style="stop-color:#E93EF5"/>
	<stop  offset="0.4975" style="stop-color:#E843EA"/>
	<stop  offset="1" style="stop-color:#D0AA00"/>
</linearGradient>
<path class="st11" d="M159.8,140.5h-146c0.9,1.1,1.9,2.2,2.8,3.3H157C158,142.7,158.9,141.6,159.8,140.5z"/>
<linearGradient id="SVGID_12_" gradientUnits="userSpaceOnUse" x1="16.6517" y1="146.4167" x2="157.0061" y2="146.4167">
	<stop  offset="0" style="stop-color:#E93EF5"/>
	<stop  offset="0.4975" style="stop-color:#E843EA"/>
	<stop  offset="1" style="stop-color:#D0AA00"/>
</linearGradient>
<path class="st12" d="M157,144.8H16.7c1,1.1,2,2.1,3,3.2H154C155,147,156,145.9,157,144.8z"/>
<linearGradient id="SVGID_13_" gradientUnits="userSpaceOnUse" x1="19.6993" y1="150.75" x2="153.9585" y2="150.75">
	<stop  offset="0" style="stop-color:#E93EF5"/>
	<stop  offset="0.4975" style="stop-color:#E843EA"/>
	<stop  offset="1" style="stop-color:#D0AA00"/>
</linearGradient>
<path class="st13" d="M154,149H19.7c1.2,1.2,2.5,2.4,3.8,3.5h126.6C151.4,151.4,152.7,150.2,154,149z"/>
<linearGradient id="SVGID_14_" gradientUnits="userSpaceOnUse" x1="23.5417" y1="154.75" x2="150.1161" y2="154.75">
	<stop  offset="0" style="stop-color:#E93EF5"/>
	<stop  offset="0.4975" style="stop-color:#E843EA"/>
	<stop  offset="1" style="stop-color:#D0AA00"/>
</linearGradient>
<path class="st14" d="M150.1,153.5H23.5c1,0.9,2,1.7,3.1,2.5H147C148.1,155.2,149.1,154.4,150.1,153.5z"/>
<linearGradient id="SVGID_15_" gradientUnits="userSpaceOnUse" x1="26.6284" y1="158.75" x2="147.0294" y2="158.75">
	<stop  offset="0" style="stop-color:#E93EF5"/>
	<stop  offset="0.4975" style="stop-color:#E843EA"/>
	<stop  offset="1" style="stop-color:#D0AA00"/>
</linearGradient>
<path class="st15" d="M147,157H26.6c1.6,1.2,3.2,2.4,4.9,3.5h110.5C143.8,159.4,145.4,158.2,147,157z"/>
<linearGradient id="SVGID_16_" gradientUnits="userSpaceOnUse" x1="31.5675" y1="163.1667" x2="142.0903" y2="163.1667">
	<stop  offset="0" style="stop-color:#E93EF5"/>
	<stop  offset="0.4975" style="stop-color:#E843EA"/>
	<stop  offset="1" style="stop-color:#D0AA00"/>
</linearGradient>
<path class="st16" d="M142.1,161.5H31.6c1.8,1.2,3.6,2.3,5.5,3.3h99.5C138.5,163.8,140.3,162.7,142.1,161.5z"/>
<linearGradient id="SVGID_17_" gradientUnits="userSpaceOnUse" x1="37.0578" y1="167.4167" x2="136.6" y2="167.4167">
	<stop  offset="0" style="stop-color:#E93EF5"/>
	<stop  offset="0.4975" style="stop-color:#E843EA"/>
	<stop  offset="1" style="stop-color:#D0AA00"/>
</linearGradient>
<path class="st17" d="M136.6,165.8H37.1c2,1.1,4.1,2.2,6.2,3.2h87.1C132.5,168,134.6,167,136.6,165.8z"/>
<linearGradient id="SVGID_18_" gradientUnits="userSpaceOnUse" x1="43.2858" y1="171.8333" x2="130.372" y2="171.8333">
	<stop  offset="0" style="stop-color:#E93EF5"/>
	<stop  offset="0.4975" style="stop-color:#E843EA"/>
	<stop  offset="1" style="stop-color:#D0AA00"/>
</linearGradient>
<path class="st18" d="M130.4,170H43.3c2.9,1.4,6,2.6,9.1,3.7h68.8C124.4,172.6,127.4,171.4,130.4,170z"/>
<path class="st0" d="M121.2,174.7H52.4c5.9,2,12.1,3.5,18.6,4.5h31.5C109.1,178.2,115.3,176.7,121.2,174.7z"/>
<path class="st0" d="M102.6,180.2H71.1c5.1,0.8,10.4,1.2,15.8,1.2C92.2,181.3,97.5,180.9,102.6,180.2z"/>
<linearGradient id="SVGID_19_" gradientUnits="userSpaceOnUse" x1="4.3732" y1="121" x2="169.2847" y2="121">
	<stop  offset="0" style="stop-color:#E93EF5"/>
	<stop  offset="0.4975" style="stop-color:#E843EA"/>
	<stop  offset="1" style="stop-color:#D0AA00"/>
</linearGradient>
<path class="st19" d="M169.3,119.3H4.4c0.4,1.1,0.9,2.2,1.4,3.3h162.1C168.4,121.6,168.8,120.5,169.3,119.3z"/>
<linearGradient id="SVGID_20_" gradientUnits="userSpaceOnUse" x1="3.243" y1="116.75" x2="170.4148" y2="116.75">
	<stop  offset="0" style="stop-color:#E93EF5"/>
	<stop  offset="0.4975" style="stop-color:#E843EA"/>
	<stop  offset="1" style="stop-color:#D0AA00"/>
</linearGradient>
<path class="st20" d="M170.4,115.2H3.2c0.3,1.1,0.7,2.1,1.1,3.2h164.9C169.7,117.3,170.1,116.2,170.4,115.2z"/>
<linearGradient id="SVGID_21_" gradientUnits="userSpaceOnUse" x1="0.6513" y1="98.6667" x2="173.0065" y2="98.6667">
	<stop  offset="0" style="stop-color:#E93EF5"/>
	<stop  offset="0.4975" style="stop-color:#E843EA"/>
	<stop  offset="1" style="stop-color:#D0AA00"/>
</linearGradient>
<path class="st21" d="M173,96.8H0.7c0.1,1.2,0.2,2.5,0.3,3.7h171.8C172.9,99.3,173,98.1,173,96.8z"/>
<linearGradient id="SVGID_22_" gradientUnits="userSpaceOnUse" x1="0.6087" y1="89.5" x2="173.0491" y2="89.5">
	<stop  offset="0" style="stop-color:#E93EF5"/>
	<stop  offset="0.4975" style="stop-color:#E843EA"/>
	<stop  offset="1" style="stop-color:#D0AA00"/>
</linearGradient>
<path class="st22" d="M172.8,87.5H0.8c-0.1,1.3-0.2,2.7-0.2,4H173C173,90.2,172.9,88.8,172.8,87.5z"/>
<linearGradient id="SVGID_23_" gradientUnits="userSpaceOnUse" x1="1.1501" y1="81.4167" x2="172.5077" y2="81.4167">
	<stop  offset="0" style="stop-color:#E93EF5"/>
	<stop  offset="0.4975" style="stop-color:#E843EA"/>
	<stop  offset="1" style="stop-color:#D0AA00"/>
</linearGradient>
<path class="st23" d="M172,79.8H1.7c-0.2,1-0.4,2.1-0.6,3.2h171.4C172.4,81.9,172.2,80.9,172,79.8z"/>
<path class="st0" d="M141.7,24.3H32c-1.1,0.7-2.1,1.4-3.2,2.2h116C143.8,25.8,142.7,25,141.7,24.3z"/>
</svg>
